<?xml version="1.0" encoding="UTF-8" standalone="no"?>
<svg width="1102px" height="403px" viewBox="0 0 1102 403" version="1.1" xmlns="http://www.w3.org/2000/svg" xmlns:xlink="http://www.w3.org/1999/xlink" xmlns:sketch="http://www.bohemiancoding.com/sketch/ns">
    <!-- Generator: Sketch 3.3.3 (12081) - http://www.bohemiancoding.com/sketch -->
    <title>bb</title>
    <desc>Created with Sketch.</desc>
    <defs></defs>
    <g id="Page-1" stroke="none" stroke-width="1" fill="none" fill-rule="evenodd" sketch:type="MSPage">
        <g id="bridgeP2" sketch:type="MSLayerGroup" transform="translate(1.000000, 2.000000)">
            <g id="Page-1" sketch:type="MSShapeGroup">
                <g id="bridge-@2x">
                    <g id="Page-1">
                        <g id="Background/Bridge">
                            <g id="bb">
                                <path d="M916.25175,398.994386 L967.669358,399.250945 L952.965952,317.353317 L925.995504,317.852692 L938.224988,398.751569 L925.770922,320.848947 L910.680098,213.483139 L937.343585,212.983763 L910.604979,214.367491 L908.46861,203.189893 L937.343585,201.890513 L908.543722,202.496872 L901.466476,144.569281 L925.871077,144.069905 L901.096641,144.818977 L894.152334,89.6379525 L922.397778,89.138577 L906.701411,21.1722698 L901.373407,86.6191355 L909.833701,86.371993 L905.179886,0.74906367 L907.936776,0.99875156 L939.92382,201.997496 L957.957585,310.719184 L975.988826,399.088342 L984.050776,399.250945 L911.40538,0.579318915 L916.366378,0.448242233 L988.805501,399.250937 L997.257451,399.044881 L920.559853,0.62165531 L926.95202,0.467615743 L1008.10372,399.001249 L1018.21808,399.023873 L931.829807,0.499375781 L946.533213,0.499375781 L1040.26742,399.250937 L1054.97082,399.250937 L956.641804,0.74906367 L977.777949,0.499375781 L1084.06889,399.392664 L1097.24311,399.500632 L994.96095,0.381672722 L1009.839,0.313611102 C1009.839,0.313611102 1103.64164,303.558553 1099.08104,288.639201 L1014.53646,0.499375781 L905.179886,0.499375786 L952.046989,317.353309" id="right-side" stroke="#FF36C2" stroke-width="2"></path>
                                <path d="M0.00153138716,72.908864 L75.3564809,0.99875156 L98.2768444,0.94828186 L0.00153138716,92.8838915 L0.00153138716,85.642943 L89.1409211,0.99875159 L83.6271444,0.99875159 L0.0015316055,80.149813" id="Independent-Left-Cables" stroke="#FF36C2" stroke-width="2"></path>
                                <path d="M93.7357369,399.001248 L361.15391,0.24968789 L371.262501,0 L113.033956,399.250937 L313.367846,399.001248 L494.403517,0.49937578 L503.593145,0.49937578 L325.314361,399.001248 L440.184712,399.001248 L573.434317,0.24968789 L580.78602,0.24968789 L448.455376,398.75156 L523.810327,399.001248 L620.30142,13.2334582 L603.76009,0.24968789 L614.787642,0.24968789 L729.657993,89.8876405 L724.144217,90.1373285 L618.463494,11.235955 L629.750618,19.4660593 L529.324103,398.75156 L581.704982,399.001248 L650.627193,35.7053683 L657.962365,41.1384238 L587.21876,398.75156 L623.977272,398.75156 L676.35815,54.182272 L682.79089,59.17603 L629.491048,398.75156 L657.978894,398.75156 L700.251183,73.158552 L705.76496,76.1548065 L664.411635,399.001248 L1098.00002,398.751556 L689.223629,398.75156 L719.549402,92.883895 L735.171769,92.634207 L710.359774,398.75156" id="left-side" stroke="#FF36C2" stroke-width="2"></path>
                                <path d="M737.835833,92.401032 L716.292987,92.8136555 L716.26091,89.9083245 L739.046789,89.5223235 L739.046789,90.2712735 L739.078866,92.8873425 L734.951059,92.8916165 L734.951059,94.6217355 L747.814582,94.55454 L754.348644,95.8846395 L796.480116,95.298187 C782.131785,89.463692 831.892561,87.7112405 820.369506,95.3980945 L867.293624,94.6217355 L871.081182,92.891617 L891.359437,91.988886 L890.761376,86.991531 L900.169244,86.87137 L900.209569,87.428961 L910.861075,87.2980725 L910.707149,86.7045895 L917.439314,86.6186035" id="Decorative-Cap" stroke="#FF36C2" stroke-width="2" transform="translate(816.850112, 91.251622) rotate(-1.000000) translate(-816.850112, -91.251622) "></path>
                                <g id="Middle-Rectangles" transform="translate(741.000000, 105.000000)" stroke="#FF36C2">
                                    <path d="M156,242.351351 L0.999999826,243 L1.99999983,232.349934 L154,231 L156,242.351351 Z" id="1-Square"></path>
                                    <path d="M144.68618,139.53035 L4.30791376,141.999999 L5.30791376,127.670151 L143.235502,125.210986 L144.68618,139.53035 Z" id="2-Square"></path>
                                    <path d="M7.00000002,68 L7.50000002,56 L135.5,55 L137,65 L7.00000002,68 Z" id="3-Square"></path>
                                    <path d="M9.30791376,9.00000041 L10.5,3.49999999 L128.499999,0.499999994 L129.999999,5.99999999 L9.30791376,9.00000041 Z" id="4-Square"></path>
                                </g>
                                <g id="3-Hollow/Cables" transform="translate(746.794138, 177.278402)">
                                    <path d="M5.50088863,44.9362118 L7.89625937,4.99547907 L15.4963892,2.25905294 L12.6016213,47.5108375 L22.5555761,47.5108382 L22.5555761,15.0131843" id="top-left-cables" stroke="#FF36C2" transform="translate(14.028232, 24.884946) rotate(-2.000000) translate(-14.028232, -24.884946) "></path>
                                    <path d="M14.7058628,1.72159791 L1.76813095,6.6906367 L0.884065475,42.9463171 L13.6975919,47.4757985 L122.731248,44.8782816 L135.682345,39.2009987 L131.377952,3.74531835 L117.885101,0 L15.2058619,1.72159791 L14.7058628,1.72159791 Z" id="2nd-hollow-square" stroke="#FF36C2" stroke-width="2"></path>
                                    <path d="M18.7058624,2 L21.7058624,2 L33.2058624,47.2215996 L28.7058624,47.2215996 L18.7058624,2 Z" id="Rectangle-1" fill="#FF36C2"></path>
                                </g>
                                <g id="2-Hollow/Cables" transform="translate(742.387117, 252.285394)">
                                    <path d="M144.112879,9.21460629 L150.612879,65.7146072 L136.612879,75.2146072 L16.5502973,76.5076155 L0.956521739,69.711361 L3.11288308,14.2146068 L17.6128824,2.99250937 L129.612879,0.992509365 L144.112879,9.21460629 Z" id="3rd-hollow" stroke="#FF36C2" stroke-width="2"></path>
                                    <path d="M48.5609929,24.1865389 L50.612883,76.2579311 L37.112883,76.2579286 L37.112883,3.14531834 L27.7806516,3.14531835 L27.7806515,76.2579282 L16.112883,76.2579286 L17.112883,3.14531834 L10.112883,8.71460659 L8.11288301,73.2579282 L2.61288301,70.2146089 L3.69591127,14.274407" id="3rd-hollow-cables" stroke="#FF36C2"></path>
                                    <path d="M45.1128831,3 L63.6128831,76.2146072 L57.6128826,76.2146072 L40.612883,3 L45.1128831,3 Z" id="Rectangle-1" fill="#FF36C2"></path>
                                </g>
                                <g id="1-Hollow/Cables" transform="translate(827.239153, 377.956446) rotate(-1.000000) translate(-827.239153, -377.956446) translate(738.739153, 354.956446)">
                                    <path d="M3.73220374,11.2413512 L1.89784291,42.8544479 L9.39685305,42.8544479 L11.0249874,7.22392752 L14.541907,7.22392773 L19.7368219,1.33843159 L17.9217374,42.8544479 L19.7368212,0.779511951 L30.1529863,1.1707974 L28.9200608,42.8544479 L41.2668817,42.779512 L42.2668817,1.1707974 L54.7038171,1.1707974 L54.7038173,42.8544463 L67.9053933,42.8544479 L66.6387029,1.1707974 L70.6376321,1.1707974" id="btm-left-cables" stroke="#FF36C2"></path>
                                    <path d="M74.611304,2.26340954 L84.3679782,43.474862 L76.4944612,43.474862 L68.6209442,2.26340954 L74.611304,2.26340954 Z" id="Post" fill="#FF36C2"></path>
                                    <path d="M143.118328,1.90462534 L147.565289,6.94365277 L154.055721,6.94365277 L155.468075,11.4337384 L160.467465,11.4337384 L163.699047,45.1186495 L176.37058,45.0842876 L0.915599939,42.017893 L2.96512234,11.4337384 L9.03401768,11.4337384 L10.5250636,6.94365277 L14.0248347,6.94365277 L19.6371328,0.838355684 L143.118328,1.90462534 Z" id="hollow" stroke="#FF36C2" stroke-width="2"></path>
                                </g>
                                <g id="Top-Hollow/Cables" transform="translate(749.000000, 118.000000)" stroke="#FF36C2">
                                    <path d="M4.5,8.5 L4.5,33 L4.5,8.5 Z" id="Cable" fill="#FF36C2"></path>
                                    <path d="M126,31.3483211 L113.47075,34.5343445 L12.5,37.0000011 L10.5,36.0000011 L12.4999996,37.0000011 L0.499999978,31.3483211 L1.49999998,7.00000015 L13.5,2.49999991 L110.01835,0.1023685 L123,3.99999991 L126,31.3483211 Z" id="4-Hollow/Cable" stroke-width="2"></path>
                                    <path d="M6,6 L13.5,36.5 L10,35 L3.5,7 L6,6 Z" id="Rectangle-1" fill="#FF36C2"></path>
                                </g>
                            </g>
                        </g>
                    </g>
                </g>
            </g>
        </g>
    </g>
</svg>