<?xml version="1.0" encoding="UTF-8" standalone="no"?>
<svg width="1397px" height="601px" viewBox="0 0 1397 601" version="1.1" xmlns="http://www.w3.org/2000/svg" xmlns:xlink="http://www.w3.org/1999/xlink" xmlns:sketch="http://www.bohemiancoding.com/sketch/ns">
    <!-- Generator: Sketch 3.3.3 (12081) - http://www.bohemiancoding.com/sketch -->
    <title>desert</title>
    <desc>Created with Sketch.</desc>
    <defs>
        <linearGradient x1="50%" y1="-1.11022302e-14%" x2="50%" y2="97.4692436%" id="linearGradient-1">
            <stop stop-color="#2ABFD4" stop-opacity="0.555253623" offset="0%"></stop>
            <stop stop-color="#EF9E91" stop-opacity="0.581040534" offset="100%"></stop>
        </linearGradient>
        <linearGradient x1="39.7319375%" y1="44.3529412%" x2="39.7319376%" y2="-164.382353%" id="linearGradient-2">
            <stop stop-color="#0B0101" offset="0%"></stop>
            <stop stop-color="#FFF3DE" offset="100%"></stop>
        </linearGradient>
        <linearGradient x1="74.4372249%" y1="100%" x2="74.4372249%" y2="-49.1162669%" id="linearGradient-3">
            <stop stop-color="#240303" offset="0%"></stop>
            <stop stop-color="#FFF3DE" offset="100%"></stop>
        </linearGradient>
        <linearGradient x1="49.9001214%" y1="-30.7896212%" x2="50%" y2="100%" id="linearGradient-4">
            <stop stop-color="#809CAD" offset="0%"></stop>
            <stop stop-color="#1C0D0D" offset="100%"></stop>
        </linearGradient>
        <linearGradient x1="46.2615728%" y1="50%" x2="46.2615728%" y2="0%" id="linearGradient-5">
            <stop stop-color="#405B61" offset="0%"></stop>
            <stop stop-color="#928A7D" offset="100%"></stop>
        </linearGradient>
        <linearGradient x1="48.720084%" y1="57.2351174%" x2="48.7338479%" y2="89.3376152%" id="linearGradient-6">
            <stop stop-color="#1C0D0D" offset="0%"></stop>
            <stop stop-color="#4E535A" offset="100%"></stop>
        </linearGradient>
        <linearGradient x1="74.3485928%" y1="50%" x2="74.3485928%" y2="0%" id="linearGradient-7">
            <stop stop-color="#281E1E" offset="0%"></stop>
            <stop stop-color="#BD9292" stop-opacity="0.892719656" offset="100%"></stop>
        </linearGradient>
        <linearGradient x1="66.4625%" y1="50%" x2="63.1277777%" y2="0%" id="linearGradient-8">
            <stop stop-color="#372F2F" offset="0%"></stop>
            <stop stop-color="#5E3A3A" offset="100%"></stop>
        </linearGradient>
        <linearGradient x1="50%" y1="-43.9750063%" x2="50%" y2="50%" id="linearGradient-9">
            <stop stop-color="#809CAD" offset="0%"></stop>
            <stop stop-color="#1C0D0D" offset="100%"></stop>
        </linearGradient>
        <linearGradient x1="50%" y1="0%" x2="50%" y2="100%" id="linearGradient-10">
            <stop stop-color="#FBFFC3" offset="0%"></stop>
            <stop stop-color="#F4D2BF" offset="100%"></stop>
        </linearGradient>
    </defs>
    <g id="Page-1" stroke="none" stroke-width="1" fill="none" fill-rule="evenodd" sketch:type="MSPage">
        <g id="desertD" sketch:type="MSLayerGroup" transform="translate(-12.000000, 0.000000)">
            <g id="Page-1" sketch:type="MSShapeGroup">
                <g id="desert">
                    <rect id="Background-1400" opacity="0.969507929" fill="url(#linearGradient-1)" x="12.9928826" y="0" width="1395.01779" height="600"></rect>
                    <path d="M13.24199,516.5 L228.501771,504 L478.001786,498.5 L550.001756,496.5 L583.501756,494.5 L655.001756,497.5 L878.001756,504 L1051.50176,504 L1259.0427,525 L1408.25979,542 L1408.25979,600.75 L13.24199,600.75 L13.24199,516.5 Z" id="bottom-mountaim" opacity="0.887112868" fill="url(#linearGradient-2)" transform="translate(710.750889, 547.625000) scale(-1, 1) translate(-710.750889, -547.625000) "></path>
                    <g id="Left-Mountains" transform="translate(0.000000, 284.000000)">
                        <path d="M762.161788,231.32079 L759.959191,143.836633 L762.161788,129.688242 L1096.74938,124.715985 C1096.74938,124.715985 1222.21544,164.584559 1288.97829,170.577828 C1337.50937,174.93444 1407.85799,207.158131 1407.85799,207.158131 L1407.85799,219.398633 L924.925331,231.32079 L762.161788,231.32079 Z" id="center-back-copy" opacity="0.152098857" fill="url(#linearGradient-3)" transform="translate(1083.908592, 178.018387) scale(1, -1) rotate(179.000000) translate(-1083.908592, -178.018387) "></path>
                        <path d="M205.469557,97.4951136 C205.469557,97.4951136 267.701395,109.321837 354.935734,114 C359.116581,114.224209 466.038937,133 466.038937,133 L605.540716,97.4951136 L665.327193,114 L665.327193,205.499996 L12.494675,205.499999 L205.469557,97.4951136 Z" id="back-mid-left-copy" opacity="0.784806437" fill="url(#linearGradient-4)" transform="translate(338.910934, 151.497556) scale(-1, 1) translate(-338.910934, -151.497556) "></path>
                        <path d="M838.168909,246.037034 L838.168909,139.17195 L854.416132,129.178042 L902.264742,124.114515 L1035.14883,118.473491 L1135.79226,146.946597 L1314.84023,146.946597 L1404.75845,201.124652 L838.168909,246.037034 Z" id="back-mid-left" opacity="0.248250933" fill="url(#linearGradient-5)" transform="translate(1121.463678, 182.255262) scale(1, -1) rotate(182.000000) translate(-1121.463678, -182.255262) "></path>
                        <path d="M478.418903,158.5 C532.815556,171.721373 813.499981,155.268387 813.499981,155.268387 L247.35286,252.334237 L143.614632,268.5 L74.8601838,245.918289 L12.5826038,252.334244 L12.5826038,95.768387 C12.5826038,95.768387 384.677952,135.715803 478.418903,158.5 Z" id="far-left-dark" opacity="0.922224813" fill="url(#linearGradient-6)" transform="translate(413.041292, 182.134194) scale(1, -1) translate(-413.041292, -182.134194) "></path>
                        <g id="center-Left-Copy" transform="translate(843.580071, 104.164835)" fill="url(#linearGradient-8)">
                            <g id="MT2-+-MT2-Copy-2" transform="translate(1.000000, 0.000000)">
                                <path d="M79.9199292,118.835165 L0.919929193,110.835165 L167.919929,64.8351652 L243.419929,18.322345 L378.919929,18.322345 L518.919929,0.835164965 L563.419929,18.3223449 L563.419929,131.835165 L79.9199292,118.835165 Z" id="MT2-Copy-2"></path>
                            </g>
                        </g>
                        <path d="M335.376465,247.642268 L35.349444,359.500575 L20.2777238,294.217792 L244.784598,230.058418 L433.324029,110.46366 L546.819878,88.8952282 L837.55049,117.851149 L335.376465,247.642268 Z" id="center-back" opacity="0.989680504" fill="url(#linearGradient-9)" transform="translate(428.914107, 224.197902) rotate(13.000000) translate(-428.914107, -224.197902) "></path>
                    </g>
                    <ellipse id="MOON" stroke="#B8E986" fill="url(#linearGradient-10)" cx="908.793594" cy="190.5" rx="22.9181495" ry="19.5"></ellipse>
                </g>
            </g>
        </g>
    </g>
</svg>