<?xml version="1.0" encoding="UTF-8" standalone="no"?>
<svg width="1403px" height="608px" viewBox="0 0 1403 608" version="1.1" xmlns="http://www.w3.org/2000/svg" xmlns:xlink="http://www.w3.org/1999/xlink" xmlns:sketch="http://www.bohemiancoding.com/sketch/ns">
    <!-- Generator: Sketch 3.3.3 (12081) - http://www.bohemiancoding.com/sketch -->
    <title>desert</title>
    <desc>Created with Sketch.</desc>
    <defs>
        <linearGradient x1="46.350872%" y1="-30.7896212%" x2="50%" y2="100%" id="linearGradient-1">
            <stop stop-color="#809CAD" offset="0%"></stop>
            <stop stop-color="#1C0D0D" offset="100%"></stop>
        </linearGradient>
        <linearGradient x1="18.8117343%" y1="57.2351174%" x2="19.1471239%" y2="89.3376152%" id="linearGradient-2">
            <stop stop-color="#1C0D0D" offset="0%"></stop>
            <stop stop-color="#4E535A" offset="100%"></stop>
        </linearGradient>
        <linearGradient x1="46.2615728%" y1="50%" x2="46.2615728%" y2="0%" id="linearGradient-3">
            <stop stop-color="#405B61" offset="0%"></stop>
            <stop stop-color="#928A7D" offset="100%"></stop>
        </linearGradient>
        <linearGradient x1="74.3485928%" y1="50%" x2="74.3485928%" y2="0%" id="linearGradient-4">
            <stop stop-color="#281E1E" offset="0%"></stop>
            <stop stop-color="#BD9292" stop-opacity="0.892719656" offset="100%"></stop>
        </linearGradient>
        <linearGradient x1="74.4372249%" y1="100%" x2="74.4372249%" y2="-49.1162669%" id="linearGradient-5">
            <stop stop-color="#240303" offset="0%"></stop>
            <stop stop-color="#FFF3DE" offset="100%"></stop>
        </linearGradient>
        <linearGradient x1="50%" y1="-43.9750063%" x2="50%" y2="50%" id="linearGradient-6">
            <stop stop-color="#809CAD" offset="0%"></stop>
            <stop stop-color="#1C0D0D" offset="100%"></stop>
        </linearGradient>
        <linearGradient x1="50%" y1="-1.11022302e-14%" x2="50%" y2="97.4692436%" id="linearGradient-7">
            <stop stop-color="#2ABFD4" stop-opacity="0.555253623" offset="0%"></stop>
            <stop stop-color="#EF9E91" stop-opacity="0.581040534" offset="100%"></stop>
        </linearGradient>
        <filter x="-50%" y="-50%" width="200%" height="200%" filterUnits="objectBoundingBox" id="filter-8">
            <feOffset dx="0" dy="2" in="SourceAlpha" result="shadowOffsetOuter1"></feOffset>
            <feGaussianBlur stdDeviation="2" in="shadowOffsetOuter1" result="shadowBlurOuter1"></feGaussianBlur>
            <feColorMatrix values="0 0 0 0 0   0 0 0 0 0   0 0 0 0 0  0 0 0 0.35 0" in="shadowBlurOuter1" type="matrix" result="shadowMatrixOuter1"></feColorMatrix>
            <feMerge>
                <feMergeNode in="shadowMatrixOuter1"></feMergeNode>
                <feMergeNode in="SourceGraphic"></feMergeNode>
            </feMerge>
        </filter>
        <linearGradient x1="50%" y1="0%" x2="50%" y2="100%" id="linearGradient-9">
            <stop stop-color="#FBFFC3" offset="0%"></stop>
            <stop stop-color="#F4D2BF" offset="100%"></stop>
        </linearGradient>
        <filter x="-50%" y="-50%" width="200%" height="200%" filterUnits="objectBoundingBox" id="filter-10">
            <feOffset dx="0" dy="2" in="SourceAlpha" result="shadowOffsetOuter1"></feOffset>
            <feGaussianBlur stdDeviation="2" in="shadowOffsetOuter1" result="shadowBlurOuter1"></feGaussianBlur>
            <feColorMatrix values="0 0 0 0 0.950778517   0 0 0 0 1   0 0 0 0 0.893821023  0 0 0 0.7 0" in="shadowBlurOuter1" type="matrix" result="shadowMatrixOuter1"></feColorMatrix>
            <feMerge>
                <feMergeNode in="shadowMatrixOuter1"></feMergeNode>
                <feMergeNode in="SourceGraphic"></feMergeNode>
            </feMerge>
        </filter>
    </defs>
    <g id="Page-1" stroke="none" stroke-width="1" fill="none" fill-rule="evenodd" sketch:type="MSPage">
        <g id="desert" sketch:type="MSLayerGroup" transform="translate(2.000000, 2.000000)">
            <path d="M2.24199288,600.75 L2.24199288,512.25 L85.1957295,512.25 L263.558719,494.5 L520.142349,494.5 L699.75089,483.25 L832.846215,494.5 L1034.30605,494.5 C1034.30605,494.5 1060.73645,510.039108 1101.56584,504 C1105.24526,503.455774 1248.0427,525 1248.0427,525 L1397.25979,542 L1397.25979,600.75 L2.24199288,600.75 Z" id="bottom-mountaim" opacity="0.887112868" fill-opacity="0.847571332" fill="#1B0909" sketch:type="MSShapeGroup" transform="translate(699.750890, 542.000000) scale(-1, 1) translate(-699.750890, -542.000000) "></path>
            <g id="Left-Mountains" transform="translate(0.000000, 318.000000)" sketch:type="MSShapeGroup">
                <path d="M1.4946754,171.499999 L194.469557,63.4951136 C194.469557,63.4951136 256.701395,75.3218371 343.935734,80.0000002 C348.116581,80.2242087 455.038937,99.0000001 455.038937,99.0000001 L594.540716,63.4951136 L654.327193,80.0000002 L654.327193,171.499996 L1.4946754,171.499999 Z" id="back-mid-left-copy" opacity="0.784806437" fill="url(#linearGradient-1)" transform="translate(327.910934, 117.497556) scale(-1, 1) translate(-327.910934, -117.497556) "></path>
                <path d="M2.58260375,61.7683881 C2.58260375,61.7683881 374.677952,98.7285762 468.418903,121.512773 C522.815556,134.734146 839.50181,121.512773 839.50181,121.512773 L237.35286,215.34701 L133.614632,231.512773 L64.8601838,208.931062 L1.58616246,217.78116 L2.58260375,61.7683881 Z" id="far-left-dark" opacity="0.922224813" fill="url(#linearGradient-2)" transform="translate(420.543986, 146.640580) scale(1, -1) translate(-420.543986, -146.640580) "></path>
                <polygon id="back-mid-left" opacity="0.242945429" fill="url(#linearGradient-3)" transform="translate(1073.560133, 146.640580) scale(-1, 1) rotate(1.000000) translate(-1073.560133, -146.640580) " points="750.13557 208.265771 750.13557 102.355909 928.788326 85.0153902 1089.84727 102.355909 1165.18718 85.0153902 1396.9847 154.428186 "></polygon>
                <g id="center-Left-Copy" transform="translate(677.580071, 64.164835)" fill="url(#linearGradient-4)" opacity="0.820895522">
                    <g id="MT2-+-MT2-Copy-2">
                        <polygon id="MT2-Copy-2" points="0.662450479 104.774359 302.91814 71.3351671 411.53024 30.3351617 557.010698 30.3351633 669.608562 0.835165203 720.427068 22.3351633 719.430626 144.835159 "></polygon>
                    </g>
                </g>
                <path d="M504.65007,189.27118 L681.151224,84.05849 C681.151224,84.05849 878.993197,103.551734 967.616704,109.545003 C1032.03867,113.901615 1129.26448,166.684809 1129.26448,166.684809 L1257.58879,189.271178 L504.65007,189.27118 Z" id="center-back-copy" opacity="0.899999976" fill-opacity="0.140000001" fill="url(#linearGradient-5)" transform="translate(881.119431, 136.664835) scale(-1, 1) rotate(1.000000) translate(-881.119431, -136.664835) "></path>
                <polygon id="center-back" opacity="0.989680504" fill="url(#linearGradient-6)" transform="translate(408.186464, 167.384942) rotate(9.000000) translate(-408.186464, -167.384942) " points="342.160984 203.814058 25.1638896 275.968766 312.521219 131.071718 408.186455 84.2869504 529.361722 58.8011182 791.209038 108.265861 "></polygon>
            </g>
            <rect id="Background-1400" opacity="0.969507929" fill="url(#linearGradient-7)" filter="url(#filter-8)" sketch:type="MSShapeGroup" x="1.99288256" y="0" width="1395.01779" height="600"></rect>
            <ellipse id="MOON" stroke="#B8E986" fill="url(#linearGradient-9)" filter="url(#filter-10)" sketch:type="MSShapeGroup" cx="897.793594" cy="190.5" rx="22.9181495" ry="19.5"></ellipse>
        </g>
    </g>
</svg>