<?xml version="1.0" encoding="UTF-8" standalone="no"?>
<svg width="1403px" height="608px" viewBox="0 0 1403 608" version="1.1" xmlns="http://www.w3.org/2000/svg" xmlns:xlink="http://www.w3.org/1999/xlink" xmlns:sketch="http://www.bohemiancoding.com/sketch/ns">
    <!-- Generator: Sketch 3.3.3 (12081) - http://www.bohemiancoding.com/sketch -->
    <title>desert</title>
    <desc>Created with Sketch.</desc>
    <defs>
        <linearGradient x1="46.350872%" y1="-30.7896212%" x2="50%" y2="100%" id="linearGradient-1">
            <stop stop-color="#809CAD" offset="0%"></stop>
            <stop stop-color="#1C0D0D" offset="100%"></stop>
        </linearGradient>
        <linearGradient x1="18.8117343%" y1="57.2351174%" x2="19.1471239%" y2="89.3376152%" id="linearGradient-2">
            <stop stop-color="#1C0D0D" offset="0%"></stop>
            <stop stop-color="#4E535A" offset="100%"></stop>
        </linearGradient>
        <linearGradient x1="46.2615728%" y1="50%" x2="46.2615728%" y2="0%" id="linearGradient-3">
            <stop stop-color="#405B61" offset="0%"></stop>
            <stop stop-color="#928A7D" offset="100%"></stop>
        </linearGradient>
        <linearGradient x1="74.3485928%" y1="50%" x2="74.3485928%" y2="0%" id="linearGradient-4">
            <stop stop-color="#281E1E" offset="0%"></stop>
            <stop stop-color="#BD9292" stop-opacity="0.892719656" offset="100%"></stop>
        </linearGradient>
        <linearGradient x1="74.4372249%" y1="100%" x2="74.4372249%" y2="-49.1162669%" id="linearGradient-5">
            <stop stop-color="#240303" offset="0%"></stop>
            <stop stop-color="#FFF3DE" offset="100%"></stop>
        </linearGradient>
        <linearGradient x1="50%" y1="-43.9750063%" x2="50%" y2="50%" id="linearGradient-6">
            <stop stop-color="#809CAD" offset="0%"></stop>
            <stop stop-color="#1C0D0D" offset="100%"></stop>
        </linearGradient>
        <linearGradient x1="47.1667737%" y1="100%" x2="33.6436967%" y2="28.6928096%" id="linearGradient-7">
            <stop stop-color="#277094" offset="0%"></stop>
            <stop stop-color="#ABA99F" stop-opacity="0.860224185" offset="100%"></stop>
        </linearGradient>
        <linearGradient x1="92.2201108%" y1="46.2400381%" x2="47.9601398%" y2="0%" id="linearGradient-8">
            <stop stop-color="#3E9E83" stop-opacity="0.839928668" offset="0%"></stop>
            <stop stop-color="#ABEFF3" offset="100%"></stop>
        </linearGradient>
        <linearGradient x1="50%" y1="-1.11022302e-14%" x2="50%" y2="97.4692436%" id="linearGradient-9">
            <stop stop-color="#2ABFD4" stop-opacity="0.555253623" offset="0%"></stop>
            <stop stop-color="#EF9E91" stop-opacity="0.581040534" offset="100%"></stop>
        </linearGradient>
        <filter x="-50%" y="-50%" width="200%" height="200%" filterUnits="objectBoundingBox" id="filter-10">
            <feOffset dx="0" dy="2" in="SourceAlpha" result="shadowOffsetOuter1"></feOffset>
            <feGaussianBlur stdDeviation="2" in="shadowOffsetOuter1" result="shadowBlurOuter1"></feGaussianBlur>
            <feColorMatrix values="0 0 0 0 0   0 0 0 0 0   0 0 0 0 0  0 0 0 0.35 0" in="shadowBlurOuter1" type="matrix" result="shadowMatrixOuter1"></feColorMatrix>
            <feMerge>
                <feMergeNode in="shadowMatrixOuter1"></feMergeNode>
                <feMergeNode in="SourceGraphic"></feMergeNode>
            </feMerge>
        </filter>
        <linearGradient x1="50%" y1="0%" x2="50%" y2="100%" id="linearGradient-11">
            <stop stop-color="#FBFFC3" offset="0%"></stop>
            <stop stop-color="#F4D2BF" offset="100%"></stop>
        </linearGradient>
        <filter x="-50%" y="-50%" width="200%" height="200%" filterUnits="objectBoundingBox" id="filter-12">
            <feOffset dx="0" dy="2" in="SourceAlpha" result="shadowOffsetOuter1"></feOffset>
            <feGaussianBlur stdDeviation="2" in="shadowOffsetOuter1" result="shadowBlurOuter1"></feGaussianBlur>
            <feColorMatrix values="0 0 0 0 0.950778517   0 0 0 0 1   0 0 0 0 0.893821023  0 0 0 0.7 0" in="shadowBlurOuter1" type="matrix" result="shadowMatrixOuter1"></feColorMatrix>
            <feMerge>
                <feMergeNode in="shadowMatrixOuter1"></feMergeNode>
                <feMergeNode in="SourceGraphic"></feMergeNode>
            </feMerge>
        </filter>
    </defs>
    <g id="Page-1" stroke="none" stroke-width="1" fill="none" fill-rule="evenodd" sketch:type="MSPage">
        <g id="desert" sketch:type="MSLayerGroup" transform="translate(3.000000, 2.000000)">
            <path d="M1.24199288,599.75 L1.24199288,511.25 L84.1957295,511.25 L262.558719,493.5 L519.142349,493.5 L698.75089,482.25 L831.846215,493.5 L1033.30605,493.5 C1033.30605,493.5 1059.73645,509.039108 1100.56584,503 C1104.24526,502.455774 1247.0427,524 1247.0427,524 L1396.25979,541 L1396.25979,599.75 L1.24199288,599.75 Z" id="bottom-mountaim" opacity="0.887112868" fill-opacity="0.847571332" fill="#1B0909" sketch:type="MSShapeGroup" transform="translate(698.750890, 541.000000) scale(-1, 1) translate(-698.750890, -541.000000) "></path>
            <g id="Left-Mountains" transform="translate(0.000000, 332.000000)" sketch:type="MSShapeGroup">
                <path d="M0.494675404,155.11791 L193.469557,57.4299087 C193.469557,57.4299087 255.701395,68.1269154 342.935734,72.3582091 C347.116581,72.5610007 454.038937,89.5432836 454.038937,89.5432836 L593.540716,57.4299087 L653.327193,72.3582091 L653.327193,155.117907 L0.494675404,155.11791 Z" id="back-mid-left-copy" opacity="0.784806437" fill="url(#linearGradient-1)" transform="translate(326.910934, 106.273909) scale(-1, 1) translate(-326.910934, -106.273909) "></path>
                <path d="M1.58260375,55.8681241 C1.58260375,55.8681241 373.677952,89.2977868 467.418903,109.905583 C521.815556,121.864018 838.50181,109.905583 838.50181,109.905583 L236.35286,194.776549 C201.773451,199.650406 132.614632,209.39812 132.614632,209.39812 L63.8601838,188.973468 L0.586162464,196.978183 L1.58260375,55.8681241 Z" id="far-left-dark" opacity="0.922224813" fill="url(#linearGradient-2)" transform="translate(419.543986, 132.633122) scale(1, -1) translate(-419.543986, -132.633122) "></path>
                <polygon id="back-mid-left" opacity="0.242945429" fill="url(#linearGradient-3)" transform="translate(1072.560133, 132.633122) scale(-1, 1) rotate(1.000000) translate(-1072.560133, -132.633122) " points="749.13557 188.371727 749.13557 92.5786283 927.788326 76.8945171 1088.84727 92.5786283 1164.18718 76.8945171 1395.9847 139.676837 "></polygon>
                <g id="center-Left-Copy" transform="translate(676.580071, 58.035657)" fill="url(#linearGradient-4)" opacity="0.820895522">
                    <g id="MT2-+-MT2-Copy-2">
                        <polygon id="MT2-Copy-2" points="0.662450479 94.766062 302.91814 64.5210616 411.53024 27.4374746 557.010698 27.4374761 669.608562 0.755388228 720.427068 20.2016552 719.430626 131.000159 "></polygon>
                    </g>
                </g>
                <path d="M503.65007,171.191545 L680.151224,76.0290223 C680.151224,76.0290223 877.993197,93.6602249 966.616704,99.0810028 C1031.03867,103.021461 1128.26448,150.762678 1128.26448,150.762678 L1256.58879,171.191543 L503.65007,171.191545 Z" id="center-back-copy" opacity="0.899999976" fill-opacity="0.140000001" fill="url(#linearGradient-5)" transform="translate(880.119431, 123.610284) scale(-1, 1) rotate(1.000000) translate(-880.119431, -123.610284) "></path>
                <polygon id="center-back" opacity="0.989680504" fill="url(#linearGradient-6)" transform="translate(407.186464, 151.395933) rotate(9.000000) translate(-407.186464, -151.395933) " points="341.160984 184.345252 24.1638896 249.607571 311.521219 118.551434 407.186455 76.2356596 528.361722 53.1842949 790.209038 97.9240479 "></polygon>
            </g>
            <g id="tree" transform="translate(1008.391459, 506.000000)">
                <path d="M29.1770463,90.5805943 C29.1770463,90.5805943 44.2669912,66.319813 71.4521056,50.0058519 C74.4143787,48.2281729 76.2430564,46.763775 77.2634899,45.5578545 C81.5761811,40.4612333 71.4521056,39.9815039 71.4521056,39.9815039 C71.4521056,39.9815039 77.8033808,36.4882062 58.2918149,45.5578545" id="Line" stroke="url(#linearGradient-7)" stroke-width="4" stroke-linecap="square" sketch:type="MSShapeGroup"></path>
                <path id="Line-decoration-1" d="M58.2918149,45.5578545 L69.35002,43.725888 L66.8208962,38.2849752 L58.2918149,45.5578545 Z" stroke="url(#linearGradient-7)" stroke-width="4" stroke-linecap="square"></path>
                <path d="M32.440613,73.8264237 L76.519407,41.4756111 L62.0569505,20.690476 C62.0569505,20.690476 43.4725154,3.58253246 0.934765667,29.9890144 C38.6879771,-4.63918082 54.6670057,0.398753165 54.6670057,0.398753165 L70.417331,8.30910028 L77.9297188,23.7623862 C77.9297188,23.7623862 77.6353884,27.4591065 76.8349421,37.5125562 C91.7349803,42.5339609 32.440613,73.8264237 32.440613,73.8264237 Z" id="Star-8" stroke="url(#linearGradient-8)" stroke-width="2" sketch:type="MSShapeGroup"></path>
            </g>
            <rect id="Background-1400" opacity="0.969507929" fill="url(#linearGradient-9)" filter="url(#filter-10)" sketch:type="MSShapeGroup" x="0.992882562" y="0" width="1395.01779" height="600"></rect>
            <ellipse id="MOON" stroke="#B8E986" fill="url(#linearGradient-11)" filter="url(#filter-12)" sketch:type="MSShapeGroup" cx="896.793594" cy="189.5" rx="22.9181495" ry="19.5"></ellipse>
        </g>
    </g>
</svg>