<?xml version="1.0" encoding="UTF-8" standalone="no"?>
<svg width="1366px" height="500px" viewBox="0 0 1366 500" version="1.1" xmlns="http://www.w3.org/2000/svg" xmlns:xlink="http://www.w3.org/1999/xlink" xmlns:sketch="http://www.bohemiancoding.com/sketch/ns">
    <!-- Generator: Sketch 3.3.3 (12081) - http://www.bohemiancoding.com/sketch -->
    <title>flight</title>
    <desc>Created with Sketch.</desc>
    <defs>
        <linearGradient x1="50%" y1="0%" x2="50%" y2="100%" id="linearGradient-1">
            <stop stop-color="#FBDA61" offset="0%"></stop>
            <stop stop-color="#F76B1C" offset="100%"></stop>
        </linearGradient>
    </defs>
    <g id="Page-1" stroke="none" stroke-width="1" fill="none" fill-rule="evenodd" sketch:type="MSPage">
        <g id="flight" sketch:type="MSLayerGroup">
            <path d="M1363.75569,39.346247 C1279.90378,59.6612727 1164.43891,145.263064 1098.36478,135.830485 C1067.32844,145.263064 1002.97579,137.117717 969.046578,135.830485 C714.241286,186.5251 619.15338,96.4801002 534.537141,92.5881513 C714.241286,146.148692 716.277493,191.508518 714.241286,194.765186 C713.234455,196.375489 841.437456,254.629642 779.364648,212.677189 C745.417507,254.629642 891.455567,239.301519 948.355609,246.147775 C958.701072,251.472641 974.219265,248.429861 979.391996,246.908471 C992.084573,249.997939 1150.09212,289.507399 1165.61032,286.464618 C1170.78305,291.789484 1170.78305,284.943228 1170.78305,299.396435 C1196.6467,301.678521 1196.6467,287.225313 1201.81944,282.661142 C1213.08733,279.532671 1212.1649,287.986008 1227.68309,286.464618 C1228.97619,286.533768 1252.25364,286.395468 1253.54675,286.464618 C1252.25372,288.746703 1284.58313,286.464618 1284.58313,289.507399 C1243.20128,287.225313 1274.23767,303.199911 1248.37402,308.524777 C1248.37402,308.524777 1217.33763,309.285472 1227.68309,301.678521 C1217.72044,297.283238 1212.68706,301.951477 1198.30037,306.482236 C1197.74756,306.65633 1186.85076,306.830221 1186.30124,307.003387 C1178.12953,309.625323 1170.78305,307.764082 1155.26486,307.764082 C1134.57393,307.764082 1140.19617,321.796446 1129.4012,325.26007 C1125.23996,324.954097 1108.71027,326.781461 1113.88301,315.371033 C1099.50399,320.647967 1096.69225,312.437404 1098.36481,307.764082 C1082.84662,319.174509 1077.67389,317.653119 1067.32843,315.371033 C1056.98296,315.371033 1072.50116,318.79906 1051.81023,318.653354 C1052.04336,318.799055 1072.50116,320.695899 1046.6375,323.73868 C1046.90298,323.925419 1010.42838,310.806863 1051.81023,311.567558 C1053.11121,311.588815 1060.84234,304.245153 1077.67389,306.482231 C1086.81138,307.696694 1077.67389,302.439216 1088.01935,302.439216 C1088.01935,300.917826 1088.90656,297.527315 1098.36481,297.875045 C1051.81023,289.507399 1051.81023,306.482231 1041.46477,301.678521 C1016.60129,282.665287 989.737459,316.892424 979.391996,313.849643 C958.701072,314.610338 964.189093,319.151326 963.873803,319.174509 C932.837416,321.456595 932.837416,308.524777 948.355609,305.481997 C921.788453,309.823032 984.564727,297.875045 1000.08292,295.59296 C1020.72126,292.052072 1015.27333,287.902825 1015.27328,290.606849 C1015.27324,293.310874 960.43408,295.336172 953.528341,297.875045 C949.861452,295.972363 844.900986,304.721301 917.319223,296.353655 C891.455567,294.071569 975.865667,291.587014 979.391996,291.028789 C927.664685,292.550179 966.673625,289.858204 906.97376,291.028789 C860.41918,297.875045 834.555524,302.439216 855.246449,293.310874 C819.037331,286.464618 786.986764,293.31087 714.241251,265.454401 C679.373607,246.908468 485.386461,226.249139 481.934252,230.310558 C404.053658,210.243277 317.282407,262.810158 270.727826,263.570854 C253.409569,263.570854 141.409557,269.082855 203.482331,258.433123 C208.655062,250.065477 32.7821967,291.028789 105.200433,278.096971 C148.839366,270.304311 151.755013,272.772105 74.1640459,272.772105 C48.3003902,273.532801 54.6070254,282.347301 48.3003899,282.661142 C29.1612869,283.613573 27.0752605,275.351829 22.4367345,273.532801 C-34.4633081,269.729325 48.3003902,371.662474 48.3003902,365.576913 C185.365831,354.927181 142.754833,381.582158 143.427475,381.977829 C156.548783,389.696239 162.100475,385.354986 162.100475,385.354986 C162.100475,385.354986 131.064088,399.047499 193.136862,397.526109 C110.373164,402.09028 162.100475,402.09028 172.445938,405.13306 C131.064088,406.65445 157.926603,409.1028 203.482325,407.415146 C259.383508,405.727491 229.34598,405.13306 239.691443,400.568889 C270.727829,397.526109 270.727829,383.833596 270.727829,383.833596 L332.800603,388.397767 C332.800603,388.397767 343.146065,397.526109 384.527915,397.526109 C322.455141,400.568889 384.527915,405.13306 353.491528,408.175841 C436.255226,388.397767 358.664278,412.478035 487.982537,408.175841 C456.946151,414.261402 405.218839,412.740012 467.291613,414.261402 C456.946151,417.304182 513.846193,413.500707 534.537118,415.022097 C524.928299,415.728627 591.437179,415.46452 534.537137,419.80748 C477.637094,424.150439 514.230758,425.888489 586.264448,422.629048 C546.29254,429.97682 618.615549,424.417569 700.064533,429.475305 C702.380096,429.619094 746.619114,419.80748 731.908714,426.220776 C717.198315,432.634072 788.000963,426.220784 731.908686,432.518085 C725.928189,445.449903 679.373609,447.731988 679.373609,457.621025 C534.537137,465.988672 886.282855,476.638404 969.046553,487.288136 C1020.77386,487.288136 986.716869,458.685151 1155.26487,472.986639 C1323.81287,487.288126 1363.75569,472.986653 1363.75569,472.986653 L1363.75569,39.346247 Z" id="right-bottom" opacity="0.699507948" fill="#F5AEB8" sketch:type="MSShapeGroup"></path>
            <path d="M582.341622,9.68523002 C582.341622,9.68523002 637.208205,29.5651433 643.719872,35.6905703 C633.952372,45.8996152 592.424452,49.6490805 536.759965,45.1461681 C592.424452,62.9500248 559.550789,57.667741 569.318288,75.0231173 C566.494926,80.2463768 577.11159,79.8405888 575.829955,84.2112577 C575.196233,86.3723944 568.752617,86.4358647 569.318288,89.3157802 C570.528393,95.4766035 559.550789,119.942915 595.364955,129.131055 C601.876622,136.277387 611.644122,132.193769 614.899955,130.15196 C622.888948,134.298236 722.342454,187.322611 732.109954,183.238993 C735.365787,190.385325 735.365787,181.197184 735.365787,200.59437 C751.644954,203.657083 751.644954,184.259898 754.900787,178.134471 C761.993055,173.93585 761.412454,185.280802 771.179954,183.238993 C771.993862,183.331797 786.645212,183.146189 787.45912,183.238993 C786.645262,186.301707 806.99412,183.238993 806.99412,187.322611 C780.947454,184.259898 800.482454,205.698892 784.203287,212.845223 C784.203287,212.845223 764.668287,213.866128 771.179954,203.657083 C764.909239,197.758316 761.741113,204.023409 752.685808,210.103994 C752.337858,210.33764 745.479164,210.571014 745.133287,210.803414 C739.98983,214.322231 735.365787,211.824319 725.598288,211.824319 C712.574954,211.824319 716.113719,230.656703 709.319121,235.305122 C706.699943,234.894485 696.295788,237.346931 699.551621,222.033364 C690.501144,229.115366 688.731375,218.096235 689.784121,211.824319 C680.016621,227.137886 676.760788,225.096077 670.249121,222.033364 C663.737455,222.033364 673.504954,226.634008 660.481621,226.43846 C660.628354,226.634002 673.504954,229.179695 657.225788,233.263313 C657.392886,233.51393 634.434955,215.907937 660.481621,216.928841 C661.300487,216.957371 666.166635,207.101677 676.760788,210.103988 C682.51213,211.73388 676.760788,204.677987 683.272454,204.677987 C683.272454,202.636179 683.830881,198.085884 689.784121,198.552561 C660.481621,187.322611 660.481621,210.103988 653.969955,203.657083 C638.320321,178.140033 621.411621,224.075173 614.899955,219.991555 C601.876622,221.012459 605.330905,227.106773 605.132455,227.137886 C585.597455,230.2006 585.597455,212.845223 595.364955,208.761605 C578.642989,214.587569 618.155788,198.552561 627.923288,195.489847 C640.913521,190.737735 637.484472,185.169164 637.484445,188.798149 C637.484417,192.427134 602.967416,195.145221 598.620788,198.552561 C596.312766,195.999033 530.248289,207.740701 575.829955,196.510752 C559.550789,193.448038 612.680404,190.113597 614.899955,189.36442 C582.341622,191.406229 606.894726,187.793416 569.318288,189.36442 C540.015789,198.552561 523.736622,204.677987 536.759955,192.427134 C513.969122,183.238993 493.795775,192.427128 448.008113,155.041857 C426.061634,130.151956 388.635563,130.151956 408.420068,76.6434528 C334.898291,45.1461682 303.961761,102.425735 301.788863,107.876436 C252.769066,80.9447823 198.153289,151.493104 168.850789,152.514008 C157.950288,152.514008 87.454962,159.911489 126.524962,145.618826 C129.780795,134.388876 19.0824584,189.36442 64.6641248,172.009044 C92.1314511,161.550765 93.9666246,164.862712 45.1291249,164.862712 C28.8499584,165.883617 32.8194964,177.713274 28.8499582,178.13447 C16.8033763,179.412698 15.4903844,168.324876 12.5707918,165.883617 C-23.2433747,160.779094 28.8499584,297.580296 28.8499584,289.41306 C115.12203,275.120397 88.3017091,310.893185 88.7250846,311.424202 C96.9839313,321.782832 100.478291,315.956577 100.478291,315.956577 C100.478291,315.956577 80.9432914,334.332858 120.013291,332.291049 C67.9199581,338.416476 100.478291,338.416476 106.989958,342.500094 C80.9432914,344.541903 97.8511621,347.827754 126.524958,345.562807 C161.71042,343.29786 142.804124,342.500094 149.315791,336.374667 C168.850791,332.291049 168.850791,313.914768 168.850791,313.914768 L207.920791,320.040195 C207.920791,320.040195 214.432457,332.291049 240.479124,332.291049 C201.409124,336.374667 240.479124,342.500094 220.944124,346.583711 C273.037457,320.040195 224.199969,352.357548 305.59579,346.583711 C286.06079,354.750947 253.502457,352.709138 292.572457,354.750947 C286.06079,358.834565 321.874957,353.730043 334.89829,355.771852 C328.850283,356.720063 370.712468,356.365614 334.898302,362.19416 C299.084135,368.022706 322.117011,370.355287 367.456635,365.980897 C342.297417,375.842104 387.819146,368.381212 439.084968,375.169037 C440.542435,375.362012 468.387468,362.19416 459.128412,370.801239 C449.869355,379.408318 494.434134,370.80125 459.128394,379.252655 C455.364134,396.608031 426.061635,399.670745 426.061635,412.942503 C334.898302,424.172453 556.294967,438.465116 608.3883,452.757778 C640.946633,452.757778 549.783301,456.841396 595.364967,458.883205 C640.946633,460.925014 676.7608,454.799587 660.481633,461.945919 C709.319133,467.050441 914.43662,472.154964 914.43662,472.154964 L914.43662,9.68523002 L582.341622,9.68523002 Z" id="left-orange" opacity="0.809409981" fill="url(#linearGradient-1)" sketch:type="MSShapeGroup" transform="translate(457.218310, 240.920097) scale(-1, 1) translate(-457.218310, -240.920097) "></path>
            <path d="M392.360122,196.475995 C390.624376,189.045296 393.246996,183.459654 390.624376,180.289123 C408.201027,176.039378 421.457314,184.959082 421.457301,190.348632 C434.198682,201.405786 443.739603,217.065051 449.775424,216.481306 C465.650769,222.9025 493.233337,246.836041 492.026173,250.33851 C483.07165,252.67349 490.819009,252.67349 482.368859,256.175959 C482.475014,256.440479 489.412689,260.262169 491.143545,257.090128 C494.822334,258.81353 494.328251,255.59221 500.476323,259.094679 C506.589662,261.976649 508.49636,258.396896 518.583786,269.602087 C519.67125,270.129964 519.236545,267.502521 524.619607,267.850853 C524.738688,267.858558 528.276024,268.568848 533.069757,270.54483 C537.86349,272.520812 546.348564,270.925953 558.435237,283.02822 C564.368375,283.025577 580.64381,287.698179 580.643806,293.296703 C595.842298,296.454353 604.292448,302.875547 604.292448,302.875547 C608.917573,308.392391 616.36409,309.29674 618.167824,319.426081 C646.543196,327.976577 640.507375,346.072673 640.507375,346.072673 C640.507375,346.072673 651.371853,350.742637 650.164689,352.809883 C636.885882,354.828851 641.714539,352.809883 636.885882,356.580086 C657.407674,351.910127 650.164689,358.331321 661.029167,358.915065 C640.507375,358.331321 657.407674,363.00128 663.443496,365.920004 C666.498505,365.517104 680.343795,360.6663 664.65066,370.589963 C667.887708,370.589963 669.858228,370.947617 674.638899,367.957014 C672.113994,367.149182 674.307974,360.6663 687.586781,361.250045 C692.415438,361.250045 682.758124,343.153953 710.522901,337.3165 C709.315737,330.89531 708.108573,332.646545 710.522901,329.727816 C722.594544,319.426081 751.566486,306.378016 755.187978,305.794271 C755.187978,302.291802 772.088278,298.205587 776.916935,297.038098 C781.745592,295.870608 796.231563,283.232071 807.096041,282.546401 C810.717534,280.211412 821.582012,282.546401 816.753355,278.358261 C818.277294,277.805566 821.582012,276.023281 826.410669,277.190771 C831.239326,274.047299 836.552556,275.10288 841.83043,274.678003 C846.932461,273.104557 855.673716,273.901812 860.211268,274.428422 C857.012375,277.326054 854.086613,279.943425 846.932461,284.19571 C846.932461,285.472375 839.689475,292.368138 830.032161,294.703118 C826.410669,298.043066 808.303205,305.794271 808.303205,305.794271 C807.8441,308.458366 807.096041,314.550444 803.474548,315.717934 C803.474548,326.156161 782.952756,337.900249 778.124099,341.986463 C773.295442,343.737698 773.295442,356.580086 760.016635,355.412596 C761.157898,358.171982 758.320951,360.385938 750.359321,363.585025 C749.899583,363.769753 745.530664,363.585025 745.530664,367.270769 C733.459022,365.920004 737.080515,367.373274 728.630365,367.957019 C731.515606,372.519395 733.459022,378.762392 729.837529,382.848606 C726.723865,386.361826 725.008872,382.264861 710.522901,390.43729 C706.901408,387.663397 698.451259,394.523504 685.172452,389.2698 C676.722302,389.2698 705.694244,395.107249 673.10081,402.112188 C676.722302,406.782147 667.064988,405.030912 665.857824,416.70581 C659.839512,414.705008 657.407674,416.70581 661.029167,417.8733 C662.958194,417.8733 661.029167,431.973265 654.993346,421.391891 C653.264422,421.177106 651.371853,425.461984 656.20051,427.796963 C655.44598,428.161829 653.786182,429.548198 648.957525,430.131943 C647.440844,433.799028 646.543196,440.055606 642.921703,440.055606 C639.300211,440.055606 638.517826,439.709754 639.300211,441.223096 C641.714539,445.893055 628.435733,458.151698 628.435733,460.486677 C644.133323,462.685009 623.607076,466.324126 618.167837,468.659106 C610.180006,472.923048 601.878119,478.582769 574.113341,489.673922 C556.005878,496.095116 566.634112,499.280337 562.041699,499.597585 C548.934872,500.503018 421.457314,499.597585 421.457314,499.597585 C421.457314,499.597585 424.424975,492.179743 407.524676,486.171448 C371.309748,484.705642 384.588555,482.668983 365.273927,480.333999 C354.409449,480.917749 359.238106,483.252724 349.403027,484.422835 C345.060386,485.918484 346.091441,488.122313 337.509149,487.338938 C296.465565,490.841407 308.537207,483.252724 304.115446,484.705624 C270.634612,498.701751 246.971831,475.664045 238.521681,472.564913 C234.900189,474.13574 230.071532,472.745316 230.071532,472.745316 C230.071532,472.745316 225.242875,475.080295 225.242875,475.080295 C219.30341,477.480294 207.135411,477.999024 197.478097,482.085239 C187.634531,486.171453 169.489098,491.328953 164.884662,492.179743 C156.434513,493.176392 150.398691,497.262606 145.570034,497.262606 C129.876899,501.932565 131.084064,499.01384 93.6619718,499.597585 C103.319286,497.262606 99.6977931,493.760132 112.78141,492.179729 C125.048242,481.501489 142.089712,480.419687 146.777199,475.080295 C156.8271,473.634404 152.81302,466.907867 174.512574,471.910111 C178.163469,472.564913 181.784962,471.577826 185.220207,473.732399 C193.856604,465.740381 199.404333,467.5411 216.8217,464.713035 C218.34947,463.489641 229.7285,464.827033 227.657203,462.237912 C255.421981,454.065483 289.22258,453.961999 289.22258,453.961999 C289.22258,453.961999 292.81533,454.030732 292.746869,453.961996 C292.490707,453.704804 289.22258,452.897994 286.637769,450.376074 C283.186758,451.679465 279.012072,447.83922 278.358101,445.30931 C284.393923,443.55808 284.393923,441.806836 297.672729,442.974326 C298.197365,440.310514 309.744372,437.720622 319.401935,436.134737 C322.640415,433.22668 325.437507,431.973279 339.529621,431.973271 C339.529622,428.05182 357.269823,425.021935 379.621225,422.760743 C376.045952,421.39735 384.588555,418.45704 388.634832,421.391889 C393.720126,421.238302 399.415538,420.859604 402.358263,419.447731 C403.639237,419.399406 422.010647,412.035846 467.882888,416.705806 C483.576023,413.787081 482.368859,411.452102 499.269158,408.533377 C518.583786,403.863418 527.033936,401.528438 547.555728,405.030908 C539.105578,399.777204 535.484086,396.858479 530.986044,387.663402 C523.412443,385.767326 521.414474,371.129291 531.87761,367.270765 C521.414477,365.336255 531.877623,358.331316 527.033936,358.331316 C528.795839,355.875556 531.877623,354.070841 537.863485,354.070836 C533.300102,354.273958 514.47472,355.996336 511.318007,352.809891 C513.638315,347.857772 527.033936,351.326377 517.376622,346.072673 C514.47472,341.132647 519.79095,337.3165 516.169458,336.14901 C511.317997,337.3165 509.315899,335.191846 509.156978,334.960281 C506.994176,331.808832 510.338673,330.4377 506.217776,340.098758 C486.478256,334.373867 504.348371,319.526602 499.269158,318.052918 C489.974889,315.356277 496.85483,298.789337 495.535417,293.682205 C494.831474,290.957408 485.897687,285.617667 483.007713,282.546398 C477.808873,277.021423 511.317997,277.77452 511.317997,274.272051 C500.536023,274.702332 490.819009,276.023286 488.254166,274.047298 C482.311711,273.286376 485.634006,272.540793 489.412689,270.925952 C495.535415,270.185837 497.478085,266.810974 493.233337,267.267112 C489.846103,267.556163 486.45887,265.510234 483.071636,265.799285 C472.711545,265.51023 477.540202,264.631798 472.711545,267.850857 C474.78373,269.170511 470.297216,273.104561 475.125873,280.211417 C464.261395,283.713886 475.125873,304.626786 471.504381,302.875551 C468.327975,301.339546 466.462272,304.391083 465.650752,298.043068 C465.145341,294.089552 458.225574,273.104561 458.225574,264.348388 C415.207847,229.411768 408.73184,221.151268 392.360122,196.475995 Z" id="Bird" fill="#FF36C2" sketch:type="MSShapeGroup"></path>
            <path d="M1224.90745,-2.84217094e-14 C1224.90745,-2.84217094e-14 1226.28574,3.71803857 1229.04232,8.17968485 C1224.90745,15.615762 1219.47412,25.0989681 1220.77258,34.2059548 C1215.40855,37.4857931 1215.25942,34.9495625 1219.39429,47.5908937 C1218.19908,51.395418 1222.69342,51.0998497 1222.15087,54.2833631 C1221.8826,55.8574945 1219.15483,55.9037251 1219.39429,58.0014017 C1219.90656,62.48883 1223.52916,72.1299482 1219.39429,73.6171636 C1218.8384,79.3154669 1215.25942,80.3096331 1230.42061,87.0021025 C1233.17719,92.2073565 1237.31205,89.2329256 1238.69034,87.7457102 C1245.72171,94.0246531 1238.69034,99.6434336 1245.58179,118.233626 C1245.58179,122.448206 1266.25613,119.720842 1267.63442,124.182488 C1270.391,123.43888 1273.92875,121.753049 1274.52586,120.46445 C1282.7956,118.233626 1284.17389,129.387742 1288.30876,126.413311 C1289.68705,131.618565 1289.68705,124.926096 1289.68705,139.054642 C1296.57849,141.285466 1296.57849,127.156919 1297.95678,122.695273 C1300.95915,119.637076 1300.71336,127.900527 1304.84823,126.413311 C1305.19278,126.480908 1311.39512,126.345715 1311.73968,126.413311 C1311.39514,128.644134 1320.00941,126.413311 1320.00941,129.387742 C1308.9831,127.156919 1317.25283,142.772681 1310.36139,147.977935 C1310.36139,147.977935 1302.09165,148.721543 1304.84823,141.285466 C1302.19365,136.988914 1300.85249,141.552291 1297.01912,145.981275 C1296.87182,146.151458 1293.96833,146.321443 1293.82191,146.49072 C1291.64454,149.05376 1289.68705,147.234327 1285.55218,147.234327 C1280.03902,147.234327 1281.53708,160.951483 1278.66073,164.337305 C1277.55196,164.038204 1273.14757,165.82452 1274.52586,154.670404 C1270.69453,159.828802 1269.94534,151.802673 1270.391,147.234327 C1266.25613,158.388443 1264.87784,156.901228 1262.12126,154.670404 C1259.36468,154.670404 1263.49955,158.021427 1257.98639,157.878994 C1258.04851,158.021423 1263.49955,159.875658 1256.6081,162.850089 C1256.67884,163.032634 1246.96008,150.208758 1257.98639,150.952366 C1258.33304,150.973146 1260.39302,143.794443 1264.87784,145.981271 C1267.31255,147.168453 1264.87784,142.029073 1267.63442,142.029073 C1267.63442,140.541858 1267.87082,137.227508 1270.391,137.567427 C1257.98639,129.387742 1257.98639,145.981271 1255.22981,141.285466 C1248.60487,122.699324 1241.44692,156.15762 1238.69034,153.183189 C1233.17719,153.926797 1234.63948,158.365781 1234.55547,158.388443 C1226.28574,160.619266 1226.28574,147.977935 1230.42061,145.003504 C1223.34171,149.247027 1240.06863,137.567427 1244.2035,135.336604 C1249.70264,131.875254 1248.25103,127.819212 1248.25102,130.462496 C1248.251,133.105781 1233.63895,135.085585 1231.7989,137.567427 C1230.82184,135.707485 1202.85482,144.259896 1222.15087,136.080212 C1215.25942,133.849388 1237.75074,131.420644 1238.69034,130.874958 C1224.90745,132.362173 1235.3015,129.730668 1219.39429,130.874958 C1206.98969,137.567427 1200.09824,142.029073 1205.6114,133.105781 C1195.96337,126.413311 1164.26272,127.900527 1140.8318,129.387742 C1140.8318,132.16679 1131.18378,126.413311 1129.80549,124.182488 C1121.53575,124.182488 1120.18558,122.718028 1117.40088,120.46445 C1107.75286,122.695273 1113.26602,124.182488 1117.40088,127.900527 C1125.67456,131.025166 1117.40088,129.387742 1107.75286,127.900527 C1109.13115,133.105781 1091.21339,130.13135 1089.8351,128.644134 C1090.05464,128.2042 1095.21689,134.313799 1090.45856,127.389124 C1085.70023,120.46445 1093.21564,120.46445 1082.94365,120.46445 C1076.05221,124.182488 1067.32403,124.673946 1066.40418,128.644134 C1045.72984,114.515588 1033.32524,129.387742 1020.92063,130.13135 C1016.30613,130.13135 1008.51603,133.105781 1025.0555,122.695273 C1026.43379,114.515588 986.463401,130.874958 1005.75945,118.233626 C1017.38717,110.616012 1018.16405,113.028372 997.489716,113.028372 C990.598269,113.77198 995.035269,116.43962 993.354848,116.746411 C988.255178,117.677448 984.942771,115.550148 983.706823,113.77198 C968.54564,110.053942 903.766043,118.977234 906.522622,124.926096 C870.6871,114.515588 827.960132,122.695273 827.960132,122.695273 C827.960132,122.695273 825.147723,129.307418 825.119807,129.267256 C822.391144,125.34151 818.312107,133.105781 818.312107,133.105781 C818.312107,133.105781 799.016057,130.13135 794.881189,127.389126 C793.787644,124.605164 789.368032,120.46445 800.394346,120.46445 C792.12461,124.182488 810.042371,122.695273 810.042371,120.46445 C819.690396,122.695273 819.841425,120.164953 822.446975,122.695273 C832.249155,116.084744 789.442379,117.675279 781.098296,120.46445 C780.056254,120.812772 771.450271,129.387742 771.450271,129.387742 C771.450271,129.387742 767.315403,124.926096 757.667378,122.695273 C752.185873,120.97015 749.397642,126.413311 745.262774,124.182488 C741.127906,121.951665 738.762456,128.960663 743.884485,133.105781 C751.288874,139.097949 738.371328,158.388443 754.910799,174.004205 C771.450271,189.619967 735.614749,202.261298 735.614749,205.979337 C749.397642,204.492121 754.910799,208.953768 754.910799,208.953768 L768.693692,212.671806 L764.558824,217.87706 C764.558824,217.87706 754.910799,224.569529 754.910799,225.313137 C749.397642,226.800353 743.884485,240.185291 743.884485,240.185291 C743.884485,240.185291 740.486036,250.425077 731.895366,249.596109 C728.329601,249.252025 734.786361,254.26195 727.435856,256.7609 C703.294572,255.820795 720.453567,252.826623 709.427253,252.826623 C668.078574,264.724346 716.318699,309.340809 713.56212,394.112088 C713.56212,403.035381 721.831856,302.648339 710.805542,296.699478 C674.97002,246.134153 730.101592,261.006307 727.345013,261.006307 C738.155768,257.117932 747.494382,251.706603 755.168408,246.241239 C776.488664,180.312461 779.720007,264.724346 779.720007,264.724346 C779.720007,264.724346 767.315403,271.416815 786.611453,277.365677 C794.881189,259.519092 785.233164,229.031176 785.233164,221.595099 C785.233164,217.600161 798.730538,216.824567 800.401682,218.449464 C806.317092,222.56736 805.598337,217.321601 812.543099,217.509001 C819.48786,217.6964 809.311556,219.294411 822.446975,217.87706 C822.446975,217.87706 822.446975,224.569529 833.473289,224.569529 C861.039075,224.569529 837.608157,220.107883 843.121314,214.159021 C843.121314,214.159021 850.012761,209.697375 844.499604,202.261298 C838.986446,197.799652 865.173943,200.030475 865.173943,204.492121 C889.98315,207.466552 862.417364,197.056044 876.200257,197.056044 C876.200257,197.056044 891.36144,206.722944 899.631175,221.595099 C910.65749,215.646237 914.792358,217.133452 923.062094,220.107883 C928.575251,224.569529 990.598269,209.697375 990.598269,203.748514 C1027.11976,193.338006 1015.76593,219.394234 1015.94516,219.781017 C1019.44137,227.32605 1020.92063,223.082314 1020.92063,223.082314 C1020.92063,223.082314 1012.6509,236.467253 1029.19037,234.980037 C1007.13774,239.441684 1020.92063,239.441684 1023.67721,242.416115 C1012.6509,243.90333 1019.80849,246.296683 1031.94695,244.646938 C1046.84198,242.997193 1038.83839,242.416115 1041.59497,237.954468 C1049.86471,234.980037 1049.86471,221.595099 1049.86471,221.595099 L1066.40418,226.056745 C1066.40418,226.056745 1069.16076,234.980037 1080.18707,234.980037 C1063.6476,237.954468 1080.18707,242.416115 1071.91734,245.390545 C1093.96997,226.056745 1073.29563,249.5961 1107.75286,245.390545 C1099.48312,251.339407 1085.70023,249.852192 1102.2397,251.339407 C1099.48312,254.313838 1114.64431,250.595799 1120.15746,252.083015 C1117.59717,252.773674 1135.31865,252.5155 1120.15747,256.760904 C1104.99629,261.006307 1114.74677,262.705316 1133.94036,259.519092 C1123.28973,266.701811 1142.56041,261.267437 1164.26273,266.211561 C1164.87971,266.352121 1176.66733,256.760904 1172.7477,263.030139 C1168.82807,269.299374 1187.69364,263.030147 1172.74769,269.185992 C1171.15417,281.827323 1158.74957,284.058147 1158.74957,293.725047 C1120.15747,301.904732 1213.88114,312.31524 1235.93377,322.725748 C1249.71666,322.725748 1211.12456,325.700179 1230.42061,327.187394 C1249.71666,328.674609 1264.87784,324.212963 1257.9864,329.418217 C1278.66074,333.136256 1365.49296,336.854294 1365.49296,336.854294 L1365.49296,3.15015579e-13 L1224.90745,-2.84217094e-14 Z" id="paint-drips-right" fill-opacity="0.765285326" fill="#FF8018" sketch:type="MSShapeGroup"></path>
        </g>
    </g>
</svg>