<?xml version="1.0" encoding="UTF-8" standalone="no"?>
<svg width="599px" height="798px" viewBox="0 0 599 798" version="1.1" xmlns="http://www.w3.org/2000/svg" xmlns:xlink="http://www.w3.org/1999/xlink" xmlns:sketch="http://www.bohemiancoding.com/sketch/ns">
    <!-- Generator: Sketch 3.3.3 (12081) - http://www.bohemiancoding.com/sketch -->
    <title>greenlake</title>
    <desc>Created with Sketch.</desc>
    <defs>
        <linearGradient x1="50%" y1="0%" x2="50%" y2="100%" id="linearGradient-1">
            <stop stop-color="#610688" offset="0%"></stop>
            <stop stop-color="#FF8A9C" offset="100%"></stop>
        </linearGradient>
        <linearGradient x1="50%" y1="21.8515869%" x2="38.9335938%" y2="59.6713971%" id="linearGradient-2">
            <stop stop-color="#EBC795" offset="0%"></stop>
            <stop stop-color="#040A66" stop-opacity="0.914260643" offset="100%"></stop>
        </linearGradient>
        <linearGradient x1="50%" y1="0%" x2="43.0350499%" y2="67.1792936%" id="linearGradient-3">
            <stop stop-color="#EBC795" offset="0%"></stop>
            <stop stop-color="#040A66" stop-opacity="0.914260643" offset="100%"></stop>
        </linearGradient>
        <linearGradient x1="50%" y1="0%" x2="50%" y2="100%" id="linearGradient-4">
            <stop stop-color="#17175F" offset="0%"></stop>
            <stop stop-color="#171621" offset="100%"></stop>
        </linearGradient>
    </defs>
    <g id="Page-1" stroke="none" stroke-width="1" fill="none" fill-rule="evenodd" sketch:type="MSPage">
        <g id="greenlake" sketch:type="MSLayerGroup" transform="translate(0.000000, -2.000000)">
            <g id="Page-1" sketch:type="MSShapeGroup">
                <g id="Desktop">
                    <g id="greenlake">
                        <g id="sky" transform="translate(0.000000, 2.000000)" fill="url(#linearGradient-1)">
                            <g id="path-4-link" transform="translate(0.995008, 0.000000)">
                                <path d="M2.27373675e-13,0 L597.005005,0 L583.505005,284.5 L2.27373675e-13,292 L2.27373675e-13,0 Z" id="path-4"></path>
                            </g>
                        </g>
                        <g id="Water-Copy" transform="translate(1.000000, 323.000000)">
                            <path d="M0,1 L567.912294,0 L576.073333,477 L0,477 L0,1 Z" id="path-6"></path>
                            <g id="path-6-link" transform="translate(0.000000, 1.000000)" fill="url(#linearGradient-3)">
                                <rect id="path-6" x="0" y="0" width="598" height="476"></rect>
                            </g>
                            <rect id="path-6" x="0" y="1" width="598" height="476"></rect>
                        </g>
                        <g id="Horizon-+-Post-+-Rectangle-2">
                            <g id="Horizon-+-Post" transform="translate(0.000000, 2.000000)">
                                <path d="M598.481698,0.489596083 C598.481698,0.489596083 590.682197,5.875153 590.682197,9.30232558 C590.682197,12.7294982 590.682197,9.30232558 584.962562,15.6670747 C579.242928,22.0318237 598.481698,24.9694002 584.962562,24.9694002 C579.762896,28.3965728 584.962562,33.2925337 577.683028,21.5422277 C570.403495,9.79192166 580.282862,33.2925337 567.803661,33.2925337 C576.487154,37.5045673 567.71784,38.4974815 567.803661,40.1468788 C567.887425,41.7567513 563.12396,40.1468788 563.12396,57.2827417 C552.041725,68.5434517 575.083195,59.7307222 563.12396,71.9706242 C575.083195,68.0538556 563.12396,80.2937576 577.683028,77.3561812 C590.484487,86.164684 567.803661,73.9290086 567.803661,79.8041616 C567.803661,85.6793146 563.12396,79.8041616 560.00416,86.6585067 C560.00416,66.5850673 562.798092,70.501836 556.721426,77.3561812 C556.721426,85.1897185 546.485025,84.7001224 556.721426,91.5544676 C556.721426,91.5544676 567.803661,98.8984088 556.721426,95.4712362 C545.63919,92.0440636 553.244593,96.4504284 560.00416,104.283966 C566.316476,111.599192 548.564892,101.346389 548.564892,97.4296206 C548.564892,93.5128519 550.644759,106.24235 543.365224,99.3880049 C536.085691,92.5336597 550.644759,107.711138 541.805324,107.711138 C530.366057,111.627907 547.111492,104.649688 539.725458,117.013464 C535.045757,124.847001 550.644759,121.419829 541.805324,127.294982 C551.898651,128.91758 530.886023,131.21175 539.725458,133.170135 C543.860501,134.086257 539.725458,144.430845 535.045757,137.086903 C535.97735,144.279784 541.805324,141.493268 535.045757,148.837209 C546.485025,154.222766 535.565723,157.649939 532.965891,153.73317 C537.462352,162.346822 535.045757,158.139535 526.72629,162.5459 C530.886023,169.400245 526.72629,167.44186 526.72629,174.785802 C535.045757,174.785802 526.72629,178.70257 526.72629,185.067319 C529.195038,187.391871 525.363625,187.960791 526.72629,191.432069 C530.071618,189.76283 534.525791,194.859241 526.72629,200.244798 C514.767055,185.067319 523.60649,200.244798 532.965891,212.974296 C533.780676,214.125088 526.72629,217.870257 518.406822,208.078335 C522.566556,220.276312 519.966722,222.234697 512.167221,215.422277 C516.810283,223.346283 506.774418,225.943454 503.327787,220.318237 C500.727953,235.495716 499.168053,229.620563 495.008319,220.318237 C495.008319,229.620563 495.008319,234.026928 488.768718,237.4541 C484.608985,243.818849 481.489185,237.943696 472.129784,240.881273 C463.387149,243.625269 465.890183,240.881273 457.050749,234.516524 C463.913473,245.159622 461.210483,245.777234 450.811148,237.4541 C453.410982,245.287638 446.131448,244.798042 437.292013,240.881273 C432.033025,251.77527 436.772047,244.308446 417.533278,248.225214 C416.581466,248.857464 417.533278,251.162791 401.934277,251.162791 C378.535774,262.423501 381.655574,269.277846 381.655574,269.277846 C381.655574,269.277846 371.25624,287.392901 365.536605,278.580171 C365.536605,278.580171 357.737104,292.778458 357.737104,282.49694 C348.377703,287.392901 356.697172,278.580171 353.577371,269.277846 C349.937604,273.684211 348.897671,273.684211 341.09817,269.277846 C336.41847,278.580171 327.059069,282.49694 327.059069,282.49694 L319.259568,271.23623 C319.259568,271.23623 313.019967,282.49694 307.820299,278.580171 C296.900998,282.49694 292.221298,282.49694 284.941764,282.49694 C284.941764,287.392901 275.582363,278.580171 275.582363,278.580171 L270.902663,287.392901 C270.902663,287.392901 267.576357,279.773221 265.183028,278.580171 C262.063228,287.392901 261.543262,286.903305 258.423461,278.580171 C256.768246,281.177731 248.984703,284.025775 243.344426,278.580171 C243.344426,287.392901 241.264559,282.49694 238.144759,276.132191 C236.892147,281.321765 229.825291,282.49694 221.505824,278.580171 L204.346922,278.580171 C196.547421,287.392901 194.987521,283.476132 188.74792,278.580171 C165.869384,273.684211 175.748752,292.778458 171.069052,287.392901 C168.897003,291.337181 176.788685,273.684211 152.870216,276.132191 C141.728583,273.361019 136.751248,271.23623 128.43178,273.684211 C125.31198,282.49694 119.072379,282.49694 119.072379,282.49694 C115.121529,285.659013 114.912646,266.340269 105.553245,282.49694 C98.4421416,277.225816 88.3943428,287.392901 88.3943428,278.580171 C78.514975,282.49694 67.0757072,282.49694 50.436772,287.392901 C50.436772,283.776482 54.0765391,278.580171 44.1971713,278.580171 C44.1971713,290.820073 41.5973378,282.49694 35.8777038,278.580171 C31.71797,285.924113 30.6780366,282.49694 25.9983361,282.49694 C19.2387687,284.94492 17.6788682,282.49694 10.3993345,282.49694 C4.67970051,287.392901 1.03993345,276.132191 1.03993345,276.132191 L1.03993345,332.435741 C1.03993345,332.435741 118.871975,329.008568 176.788685,329.008568 C245.743856,329.008568 417.533278,327.050184 417.533278,327.050184 C417.533278,327.050184 381.655574,331.946144 360.336938,331.946144 C351.382134,331.946144 423.252911,341.738066 357.737104,341.738066 C344.339701,341.738066 401.934277,350.0612 366.576539,352.50918 C378.535774,362.790698 381.78003,368.761284 378.535774,369.155447 C362.416805,371.113831 425.110225,373.072215 417.533278,373.072215 C394.134776,373.072215 375.93594,377.968176 388.415141,377.968176 C400.894343,377.968176 433.822703,386.348514 414.933444,387.760098 C349.417637,392.656059 527.246256,388.73929 480.449251,393.635251 C433.652246,398.531212 556.721426,402.44798 488.768718,406.854345 C420.816012,411.26071 550.644759,409.302326 499.168053,415.667075 C447.691348,422.031824 556.721426,415.667075 530.886023,419.583843 C505.050621,423.500612 535.045757,424.479804 514.767055,428.396573 C494.488353,432.313341 530.886023,427.906977 522.566556,436.719706 C514.247089,445.532436 518.406822,436.719706 475.249584,436.719706 C502.80782,444.553244 495.008319,442.594859 480.449251,442.594859 C495.008319,454.834761 495.528287,444.553244 509.047421,448.470012 C522.566556,452.386781 526.467812,453.062379 520.486689,451.897185 C505.407654,448.959608 475.249584,451.897185 475.249584,451.897185 C475.249584,451.897185 464.85025,455.324357 520.486689,455.324357 C538.050488,455.324357 528.34407,457.935225 526.72629,459.730722 C525.001204,461.645312 530.446242,462.791434 520.486689,464.137087 C510.200058,465.526932 500.97418,464.137087 495.008319,464.137087 C477.849417,464.137087 567.283694,473.439412 512.167221,473.439412 C457.050749,473.439412 495.008319,474.908201 520.486689,479.314565 C530.886023,479.314565 532.090151,484.210526 518.406822,484.210526 C486.168886,484.210526 530.886023,489.596083 514.767055,491.554468 C525.16639,495.960832 546.485025,502.815177 518.406822,499.388005 C517.376441,499.784441 541.122424,508.200734 499.168053,508.200734 C541.122424,515.544676 557.404326,509.669523 495.008319,515.544676 C545.445092,515.544676 530.886023,522.888617 530.886023,522.888617 C530.886023,522.888617 530.886023,525.336597 518.406822,525.336597 C530.886023,531.21175 544.418269,532.119531 535.045757,533.170135 C513.207155,535.618115 550.634941,536.516121 541.805324,538.555692 C522.729489,542.962056 550.124792,541.003672 549.604825,547.368421 C549.084859,553.73317 530.886023,547.368421 518.406822,554.712362 C528.806156,554.712362 529.816199,563.035496 526.72629,563.035496 C533.485857,563.035496 532.039317,564.746764 535.045757,567.931457 C539.205491,572.337821 550.644759,566.462668 554.641535,578.294883 C563.12396,578.294912 533.679955,585.556916 556.721426,585.556916 C579.762896,585.556916 558.767115,592.411261 554.804493,592.411261 C544.295097,592.411261 534.130854,595.597188 535.045757,595.348837 C536.253432,595.021013 537.609719,596.057904 546.485025,598.286414 C559.591987,601.577454 555.34484,594.635289 555.062563,600.36174 C554.99176,601.798088 564.687985,597.103097 563.12396,600.244798 C562.34571,601.637642 558.24155,602.794929 557.162614,603.766768 C553.690491,606.894239 552.358715,608.101174 550.644759,609.057528 C553.244593,609.057528 556.721426,625.214198 556.721426,625.214198 L550.644759,635.00612 L598.481698,641.860465 L598.481698,0.489596083 L598.481698,0.489596083 Z" id="Horizon" fill="#05056A"></path>
                                <path d="M0.519966722,466.033048 L48.3569052,466.033051 L53.0366057,448.897185 L54.5965058,376.926561 C54.5965058,376.926561 63.4359401,372.0306 73.7534748,375.529918 C82.1547421,378.395349 81.6347753,378.884945 93.59401,383.29131 C105.553245,387.697674 110.205105,390.636506 111.272878,391.124846 C129.471714,399.447979 143.510815,438.126071 143.510815,438.126071 L145.590682,796.510404 L51.4767055,796.510407 L53.5565723,529.190942 L54.5965058,508.138311 C54.5965058,508.138311 51.4495603,501.773565 48.3569052,497.856796 L0.519966722,497.856793 L0.519966722,466.033048 L0.519966722,466.033048 Z" id="Post" fill="url(#linearGradient-4)"></path>
                            </g>
                            <rect id="frame" x="0.998336106" y="0" width="599.001664" height="800"></rect>
                        </g>
                    </g>
                </g>
            </g>
        </g>
    </g>
</svg>